<svg width="50" height="50" viewBox="0 0 50 50" fill="none" xmlns="http://www.w3.org/2000/svg">
<path d="M33.5938 2.08337C31.1917 2.22296 28.434 3.56117 26.7944 5.26534C25.3132 6.81534 24.1445 9.11736 24.6216 11.3444C27.232 11.4132 29.8521 10.0403 31.4209 8.30489C32.8855 6.68197 33.9958 4.41671 33.5938 2.08337ZM33.7362 11.3404C29.9674 11.3404 28.3917 13.6556 25.7813 13.6556C23.0958 13.6556 20.641 11.4869 17.391 11.4869C12.9701 11.4889 6.25 15.5841 6.25 25.232C6.25 34.0091 14.2035 43.75 18.693 43.75C21.4201 43.7771 22.0813 42.0354 25.7813 42.0166C29.4854 41.9896 30.2847 43.773 33.016 43.75C36.091 43.7271 38.4924 40.348 40.2466 37.6709C41.5049 35.7543 42.0222 34.7758 42.9972 32.6091C35.7618 30.7758 34.3222 19.1077 42.9972 16.6952C41.3597 13.9014 36.5799 11.3404 33.7362 11.3404Z" fill="#070707"/>
</svg>
