<svg width="14" height="14" viewBox="0 0 14 14" fill="none" xmlns="http://www.w3.org/2000/svg">
<g clip-path="url(#clip0_148_1975)">
<path d="M11.8508 3.03338H9.99008L9.77342 2.38338C9.66899 2.06777 9.46764 1.79316 9.19804 1.59864C8.92845 1.40413 8.60436 1.29964 8.27192 1.30005H5.59478C5.26243 1.2998 4.93847 1.40435 4.66897 1.59885C4.39948 1.79335 4.19818 2.06788 4.09372 2.38338L3.87662 3.03338H2.01588C1.59631 3.03384 1.19405 3.20072 0.89737 3.4974C0.600686 3.79409 0.433808 4.19634 0.43335 4.61592V10.9859C0.434267 11.4052 0.601347 11.807 0.897981 12.1033C1.19461 12.3996 1.59661 12.5663 2.01588 12.5667H11.8525C12.2718 12.5658 12.6736 12.3987 12.9699 12.1021C13.2663 11.8055 13.4329 11.4035 13.4333 10.9842V4.61418C13.4324 4.19491 13.2654 3.7931 12.9687 3.49679C12.6721 3.20048 12.2701 3.03384 11.8508 3.03338ZM12.5667 10.9842C12.5665 11.174 12.491 11.3559 12.3568 11.4901C12.2226 11.6243 12.0406 11.6998 11.8508 11.7001H2.01588C1.82609 11.6998 1.64414 11.6243 1.50994 11.4901C1.37574 11.3559 1.30025 11.174 1.30002 10.9842V4.61418C1.3007 4.4247 1.3764 4.24319 1.51055 4.10936C1.6447 3.97554 1.82639 3.90028 2.01588 3.90005H4.18905C4.27996 3.89998 4.36855 3.87132 4.44227 3.81813C4.51599 3.76494 4.57112 3.6899 4.59985 3.60365L4.91575 2.65595C4.96319 2.5134 5.05432 2.38942 5.17621 2.3016C5.2981 2.21378 5.44455 2.16659 5.59478 2.16672H8.27192C8.42222 2.16655 8.56874 2.21379 8.69065 2.3017C8.81256 2.38961 8.90364 2.51372 8.95095 2.65638L9.26685 3.60365C9.29558 3.6899 9.35071 3.76494 9.42443 3.81813C9.49815 3.87132 9.58674 3.89998 9.67765 3.90005H11.8508C12.0406 3.90028 12.2226 3.97578 12.3568 4.10998C12.491 4.24418 12.5665 4.42613 12.5667 4.61592V10.9842Z" fill="black"/>
<path d="M6.93335 4.33337C6.29056 4.33337 5.66221 4.52398 5.12775 4.8811C4.59329 5.23821 4.17673 5.74579 3.93074 6.33965C3.68476 6.93351 3.6204 7.58698 3.7458 8.21742C3.8712 8.84786 4.18073 9.42695 4.63525 9.88147C5.08977 10.336 5.66887 10.6455 6.29931 10.7709C6.92975 10.8963 7.58321 10.832 8.17707 10.586C8.77093 10.34 9.27851 9.92344 9.63563 9.38898C9.99274 8.85452 10.1834 8.22616 10.1834 7.58337C10.1824 6.7217 9.83973 5.89559 9.23043 5.28629C8.62114 4.677 7.79502 4.33429 6.93335 4.33337ZM6.93335 9.96671C6.46197 9.96671 6.00118 9.82693 5.60924 9.56504C5.2173 9.30316 4.91183 8.93093 4.73144 8.49544C4.55105 8.05994 4.50385 7.58073 4.59581 7.11841C4.68777 6.65609 4.91476 6.23142 5.24808 5.8981C5.58139 5.56479 6.00606 5.3378 6.46839 5.24584C6.93071 5.15387 7.40992 5.20107 7.84541 5.38146C8.28091 5.56185 8.65314 5.86733 8.91502 6.25926C9.1769 6.6512 9.31668 7.11199 9.31668 7.58337C9.316 8.21526 9.06467 8.82107 8.61786 9.26788C8.17105 9.7147 7.56524 9.96602 6.93335 9.96671Z" fill="black"/>
<path d="M11.2666 5.63339C11.5059 5.63339 11.6999 5.43938 11.6999 5.20006C11.6999 4.96073 11.5059 4.76672 11.2666 4.76672C11.0273 4.76672 10.8333 4.96073 10.8333 5.20006C10.8333 5.43938 11.0273 5.63339 11.2666 5.63339Z" fill="black"/>
</g>
<defs>
<clipPath id="clip0_148_1975">
<rect width="13.8667" height="13.8667" fill="white"/>
</clipPath>
</defs>
</svg>
