<svg width="18" height="20" viewBox="0 0 18 20" fill="none" xmlns="http://www.w3.org/2000/svg">
<path d="M14.7158 18.0652C14.8337 18.3304 14.9811 18.6252 15.1579 18.8904L15.0106 19.0083C14.48 19.3915 13.7432 19.362 13.2127 18.9494L13.1537 18.9199C12.6232 18.4778 11.8274 18.4778 11.2969 18.9199C10.7664 19.362 9.97056 19.362 9.44004 18.9199C8.90951 18.4778 8.11372 18.4778 7.5832 18.9199C7.31793 19.1262 6.99372 19.2441 6.66951 19.2441C6.3453 19.2441 6.02109 19.1262 5.72635 18.9199C5.19583 18.4778 4.40004 18.4778 3.86951 18.9199L3.81056 18.9494C3.28004 19.362 2.57267 19.3915 2.01267 19.0083L1.89478 18.9199C2.04214 18.6252 2.18951 18.3599 2.33688 18.0947" stroke="black" stroke-width="0.8" stroke-miterlimit="10" stroke-linecap="round" stroke-linejoin="round"/>
<path d="M7.28833 2.00208C8.11359 2.14944 8.93886 2.14944 9.76412 2.00208" stroke="black" stroke-width="0.8" stroke-miterlimit="10" stroke-linecap="round" stroke-linejoin="round"/>
<path d="M12.6822 2.06105C12.0633 2.79789 11.8864 3.8 12.0338 4.74316C12.2696 5.98105 11.8275 7.04211 10.619 7.89684H6.40431C5.22536 7.04211 4.78325 5.98105 4.98957 4.74316C5.16641 3.8 4.9601 2.79789 4.34115 2.06105C4.2822 2.00211 4.22325 1.91368 4.16431 1.85474L6.16852 1C6.19799 2.56211 7.46536 4.06526 8.52641 5.5979C9.58746 4.09474 10.8548 2.56211 10.8843 1L12.8885 1.85474C12.8001 1.91368 12.7411 2.00211 12.6822 2.06105Z" stroke="black" stroke-width="0.8" stroke-miterlimit="10" stroke-linecap="round" stroke-linejoin="round"/>
<path d="M15.1285 16.8864L15.0106 16.9748C14.48 17.358 13.7432 17.3285 13.2127 16.9159L13.1537 16.8864C12.8885 16.6801 12.5642 16.5622 12.2106 16.5622C11.8864 16.5622 11.5621 16.6801 11.2969 16.8864C11.0316 17.0927 10.7074 17.2106 10.3832 17.2106C10.059 17.2106 9.73477 17.0927 9.44004 16.8864C9.17477 16.6801 8.85056 16.5622 8.49688 16.5622C8.17267 16.5622 7.84846 16.6801 7.5832 16.8864C7.31793 17.0927 6.99372 17.2106 6.66951 17.2106C6.3453 17.2106 6.02109 17.0927 5.72635 16.8864C5.19583 16.4443 4.40004 16.4443 3.86951 16.8864L3.81056 16.9159C3.28004 17.3285 2.57267 17.358 2.01267 16.9748L1.89478 16.8864C3.72214 13.7033 3.60425 10.8738 6.37478 9.16431H10.619C13.4485 10.8738 13.3306 13.7033 15.1285 16.8864Z" stroke="black" stroke-width="0.8" stroke-miterlimit="10" stroke-linecap="round" stroke-linejoin="round"/>
<path d="M6.40417 7.92639H10.6484V9.16429H6.40417V7.92639Z" stroke="black" stroke-width="0.8" stroke-miterlimit="10" stroke-linecap="round" stroke-linejoin="round"/>
</svg>
