<svg width="22" height="22" viewBox="0 0 22 22" fill="none" xmlns="http://www.w3.org/2000/svg">
<path d="M3.8173 14.9865C3.6413 14.9865 3.46564 14.9195 3.33123 14.7851C3.06277 14.5166 3.06277 14.0814 3.33123 13.813L14.0748 3.06939C14.3429 2.80092 14.7785 2.80092 15.0469 3.06939C15.3154 3.33786 15.3154 3.77305 15.0469 4.04152L4.30336 14.7851C4.1693 14.9191 3.9933 14.9865 3.8173 14.9865Z" fill="black"/>
<path d="M2.75581 19.9375C2.70803 19.9375 2.65956 19.9323 2.6111 19.922C2.23985 19.8423 2.00335 19.4769 2.0831 19.1056L3.14528 14.1546C3.22503 13.7833 3.59216 13.5475 3.96169 13.6266C4.33294 13.7063 4.56944 14.0717 4.48969 14.443L3.4275 19.394C3.35841 19.7168 3.0731 19.9375 2.75581 19.9375Z" fill="black"/>
<path d="M7.70621 18.8753C7.53021 18.8753 7.35456 18.8083 7.22015 18.6739C6.95168 18.4054 6.95168 17.9702 7.22015 17.7018L17.9637 6.95855C18.2318 6.69008 18.6674 6.69008 18.9358 6.95855C19.2043 7.22702 19.2043 7.66221 18.9358 7.93068L8.19262 18.6739C8.05821 18.8083 7.88221 18.8753 7.70621 18.8753Z" fill="black"/>
<path d="M2.75444 19.9375C2.43716 19.9375 2.15219 19.7168 2.08275 19.394C2.00334 19.0227 2.2395 18.6573 2.61075 18.5776L7.56178 17.5154C7.93337 17.4367 8.29878 17.6725 8.37819 18.0434C8.45759 18.4146 8.22144 18.78 7.85019 18.8598L2.89916 19.922C2.85069 19.9326 2.80222 19.9375 2.75444 19.9375Z" fill="black"/>
<path d="M16.5052 10.0764C16.3292 10.0764 16.1532 10.0093 16.0192 9.87494L12.1303 5.9861C11.8618 5.71763 11.8618 5.28244 12.1303 5.01397C12.3984 4.7455 12.8343 4.7455 13.1024 5.01397L16.9913 8.90282C17.2597 9.17129 17.2597 9.60647 16.9913 9.87494C16.8572 10.0093 16.6812 10.0764 16.5052 10.0764Z" fill="black"/>
<path d="M18.4497 8.13206C18.2737 8.13206 18.0977 8.06503 17.9633 7.93062C17.6949 7.66215 17.6949 7.22696 17.9633 6.95815C18.3459 6.57556 18.5567 6.05753 18.5567 5.49996C18.5567 4.9424 18.3459 4.42437 17.9633 4.04178C17.5804 3.65884 17.0624 3.44812 16.5048 3.44812C15.9472 3.44812 15.4292 3.65884 15.0466 4.04178C14.7785 4.31025 14.3433 4.31059 14.0742 4.04178C13.8057 3.77331 13.8057 3.33812 14.0742 3.06931C14.7163 2.42684 15.5794 2.07312 16.5048 2.07312C17.4298 2.07312 18.2933 2.42684 18.9355 3.06931C19.5779 3.71143 19.9317 4.57459 19.9317 5.49996C19.9317 6.42534 19.5779 7.28849 18.9355 7.93062C18.8017 8.06468 18.6257 8.13206 18.4497 8.13206Z" fill="black"/>
</svg>
