<svg width="50" height="50" viewBox="0 0 50 50" fill="none" xmlns="http://www.w3.org/2000/svg">
<path d="M25.0001 4.16663C13.4938 4.16663 4.16675 13.4937 4.16675 25C4.16675 36.5062 13.4938 45.8333 25.0001 45.8333C36.5063 45.8333 45.8334 36.5062 45.8334 25C45.8334 13.4937 36.5063 4.16663 25.0001 4.16663Z" fill="url(#paint0_linear_103_3703)"/>
<path d="M27.8199 30.5219H33.2115L34.0584 25.0448H27.8199V22.051C27.8199 19.776 28.5636 17.7583 30.6917 17.7583H34.1115V12.9792C33.5105 12.8979 32.2397 12.7208 29.8386 12.7208C24.824 12.7208 21.8845 15.3687 21.8845 21.4021V25.0458H16.7292V30.5229H21.8834V45.5771C22.9042 45.7292 23.9386 45.8333 25.0001 45.8333C25.9595 45.8333 26.8959 45.7458 27.8199 45.6208V30.5219Z" fill="white"/>
<defs>
<linearGradient id="paint0_linear_103_3703" x1="10.4095" y1="10.4093" x2="42.3074" y2="42.3073" gradientUnits="userSpaceOnUse">
<stop stop-color="#2AA4F4"/>
<stop offset="1" stop-color="#007AD9"/>
</linearGradient>
</defs>
</svg>
