<svg width="50" height="50" viewBox="0 0 50 50" fill="none" xmlns="http://www.w3.org/2000/svg">
<path d="M45.4282 20.9198H43.7501V20.8333H25.0001V29.1666H36.774C35.0563 34.0177 30.4407 37.5 25.0001 37.5C18.097 37.5 12.5001 31.9031 12.5001 25C12.5001 18.0968 18.097 12.5 25.0001 12.5C28.1865 12.5 31.0855 13.702 33.2928 15.6656L39.1855 9.77288C35.4647 6.30517 30.4876 4.16663 25.0001 4.16663C13.4949 4.16663 4.16675 13.4948 4.16675 25C4.16675 36.5052 13.4949 45.8333 25.0001 45.8333C36.5053 45.8333 45.8334 36.5052 45.8334 25C45.8334 23.6031 45.6897 22.2395 45.4282 20.9198Z" fill="#FFC107"/>
<path d="M6.56885 15.3031L13.4136 20.3229C15.2657 15.7375 19.7511 12.5 25.0001 12.5C28.1866 12.5 31.0855 13.702 33.2928 15.6656L39.1855 9.77288C35.4647 6.30517 30.4876 4.16663 25.0001 4.16663C16.998 4.16663 10.0584 8.68433 6.56885 15.3031Z" fill="#FF3D00"/>
<path d="M25 45.8333C30.3812 45.8333 35.2708 43.7739 38.9677 40.425L32.5198 34.9687C30.4281 36.5531 27.8281 37.5 25 37.5C19.5812 37.5 14.9802 34.0448 13.2469 29.2229L6.45312 34.4573C9.90104 41.2041 16.9031 45.8333 25 45.8333Z" fill="#4CAF50"/>
<path d="M45.4281 20.9198H43.75V20.8334H25V29.1667H36.774C35.949 31.4969 34.45 33.5063 32.5167 34.9698C32.5177 34.9688 32.5188 34.9688 32.5198 34.9678L38.9677 40.424C38.5115 40.8386 45.8333 35.4167 45.8333 25C45.8333 23.6032 45.6896 22.2396 45.4281 20.9198Z" fill="#1976D2"/>
</svg>
