<svg width="20" height="24" viewBox="0 0 20 24" fill="none" xmlns="http://www.w3.org/2000/svg">
<g clip-path="url(#clip0_576_1329)">
<path d="M19.1667 12.9792H0.833333C0.373332 12.9792 0 12.5312 0 11.9792C0 11.4272 0.373332 10.9792 0.833333 10.9792H19.1667C19.6267 10.9792 20 11.4272 20 11.9792C20 12.5312 19.6267 12.9792 19.1667 12.9792Z" fill="white"/>
<path d="M19.1667 5.3125H0.833333C0.373332 5.3125 0 4.8645 0 4.3125C0 3.7605 0.373332 3.3125 0.833333 3.3125H19.1667C19.6267 3.3125 20 3.7605 20 4.3125C20 4.8645 19.6267 5.3125 19.1667 5.3125Z" fill="white"/>
<path d="M19.1667 20.6458H0.833333C0.373332 20.6458 0 20.1978 0 19.6458C0 19.0938 0.373332 18.6458 0.833333 18.6458H19.1667C19.6267 18.6458 20 19.0938 20 19.6458C20 20.1978 19.6267 20.6458 19.1667 20.6458Z" fill="white"/>
</g>
<defs>
<clipPath id="clip0_576_1329">
<rect width="20" height="24" fill="white"/>
</clipPath>
</defs>
</svg>
