<svg width="22" height="22" viewBox="0 0 22 22" fill="none" xmlns="http://www.w3.org/2000/svg">
<path d="M18.6067 15.1971L17.529 13.6468C17.3819 13.436 17.3028 13.1854 17.3022 12.9284V8.47908C17.3022 6.80767 16.6382 5.20471 15.4563 4.02284C14.2745 2.84097 12.6715 2.177 11.0001 2.177C9.32866 2.177 7.7257 2.84097 6.54383 4.02284C5.36196 5.20471 4.69799 6.80767 4.69799 8.47908V12.9284C4.69738 13.1854 4.61822 13.436 4.47112 13.6468L3.39346 15.1971C3.23029 15.3779 3.12299 15.6021 3.08454 15.8426C3.04608 16.0831 3.07813 16.3295 3.17679 16.5522C3.27546 16.7749 3.43651 16.9642 3.64049 17.0972C3.84447 17.2303 4.08263 17.3014 4.32617 17.302H7.91206C8.0567 18.0143 8.44315 18.6547 9.00594 19.1147C9.56872 19.5747 10.2732 19.826 11.0001 19.826C11.7269 19.826 12.4314 19.5747 12.9942 19.1147C13.557 18.6547 13.9435 18.0143 14.0881 17.302H17.674C17.9175 17.3014 18.1557 17.2303 18.3597 17.0972C18.5636 16.9642 18.7247 16.7749 18.8234 16.5522C18.922 16.3295 18.9541 16.0831 18.9156 15.8426C18.8772 15.6021 18.7699 15.3779 18.6067 15.1971ZM11.0001 18.5624C10.61 18.5613 10.2298 18.4396 9.91167 18.214C9.5935 17.9883 9.35291 17.6698 9.22289 17.302H12.7773C12.6472 17.6698 12.4067 17.9883 12.0885 18.214C11.7703 18.4396 11.3901 18.5613 11.0001 18.5624ZM4.32617 16.0416C4.35465 16.0152 4.38003 15.9855 4.4018 15.9534L5.50466 14.3652C5.79887 13.9437 5.95719 13.4424 5.95841 12.9284V8.47908C5.95841 7.14195 6.48958 5.85958 7.43508 4.91409C8.38058 3.96859 9.66294 3.43742 11.0001 3.43742C12.3372 3.43742 13.6196 3.96859 14.5651 4.91409C15.5106 5.85958 16.0417 7.14195 16.0417 8.47908V12.9284C16.043 13.4424 16.2013 13.9437 16.4955 14.3652L17.5984 15.9534C17.6201 15.9855 17.6455 16.0152 17.674 16.0416H4.32617Z" fill="black"/>
</svg>
