<svg width="22" height="24" viewBox="0 0 22 24" fill="none" xmlns="http://www.w3.org/2000/svg">
<g clip-path="url(#clip0_148_1291)">
<path d="M14.7153 13.5C13.3686 13.5 12.7211 14.25 10.5109 14.25C8.30083 14.25 7.65798 13.5 6.30657 13.5C2.82482 13.5 0 16.3219 0 19.8V21.75C0 22.9922 1.00886 24 2.25235 24H18.7696C20.013 24 21.0219 22.9922 21.0219 21.75V19.8C21.0219 16.3219 18.1971 13.5 14.7153 13.5ZM19.5203 21.75C19.5203 22.1625 19.1825 22.5 18.7696 22.5H2.25235C1.83942 22.5 1.50156 22.1625 1.50156 21.75V19.8C1.50156 17.1516 3.65537 15 6.30657 15C7.22628 15 8.14129 15.75 10.5109 15.75C12.8759 15.75 13.7956 15 14.7153 15C17.3665 15 19.5203 17.1516 19.5203 19.8V21.75ZM10.5109 12C13.8285 12 16.5172 9.31406 16.5172 6C16.5172 2.68594 13.8285 0 10.5109 0C7.19343 0 4.50469 2.68594 4.50469 6C4.50469 9.31406 7.19343 12 10.5109 12ZM10.5109 1.5C12.9932 1.5 15.0156 3.52031 15.0156 6C15.0156 8.47969 12.9932 10.5 10.5109 10.5C8.02868 10.5 6.00626 8.47969 6.00626 6C6.00626 3.52031 8.02868 1.5 10.5109 1.5Z" fill="white"/>
</g>
<defs>
<clipPath id="clip0_148_1291">
<rect width="21.0219" height="24" fill="white"/>
</clipPath>
</defs>
</svg>
