<svg width="21" height="20" viewBox="0 0 21 20" fill="none" xmlns="http://www.w3.org/2000/svg">
<g clip-path="url(#clip0_1101_2624)">
<path d="M6.29226 5.49183C7.12609 4.63156 8.19394 4.03476 9.36357 3.77535C10.5332 3.51594 11.7532 3.6053 12.8726 4.03238C13.9919 4.45945 14.9614 5.20548 15.661 6.17807C16.3606 7.15066 16.7595 8.30708 16.8084 9.50414L16.8348 10.1479L17.8792 8.66593L18.5944 9.16998L16.5782 12.0309L13.7173 10.0147L14.2213 9.2995L15.4977 10.199L15.4992 9.7791C15.5048 8.81917 15.2231 7.87953 14.6902 7.08107C14.1573 6.2826 13.3978 5.66184 12.5092 5.29866C11.6206 4.93548 10.6437 4.84649 9.70407 5.04314C8.76449 5.23979 7.90525 5.71309 7.23689 6.40213L6.29226 5.49183Z" fill="white"/>
<path d="M7.16105 14.7609C6.3908 14.2225 5.75592 13.5128 5.3063 12.6876C4.85668 11.8624 4.60458 10.9441 4.56982 10.005L4.54408 9.36062L3.4997 10.8426L2.78446 10.3385L4.80064 7.4776L7.66159 9.49378L7.15754 10.209L5.8812 9.30955L5.87968 9.72943C5.87412 10.6894 6.1559 11.629 6.68878 12.4274C7.22165 13.2259 7.98124 13.8466 8.86983 14.2098C9.75841 14.573 10.7353 14.662 11.6749 14.4654C12.6145 14.2688 13.4738 13.7955 14.1422 13.1065L15.087 14.0169C14.0716 15.0656 12.7148 15.7169 11.2615 15.8533C9.80813 15.9897 8.35389 15.6023 7.16105 14.7609Z" fill="white"/>
</g>
<defs>
<clipPath id="clip0_1101_2624">
<rect width="14" height="14" fill="white" transform="translate(9) rotate(35.1734)"/>
</clipPath>
</defs>
</svg>
