<svg width="18" height="18" viewBox="0 0 18 18" fill="none" xmlns="http://www.w3.org/2000/svg">
<path fill-rule="evenodd" clip-rule="evenodd" d="M10.7863 17.2241C10.9933 17.0363 11.0089 16.7162 10.8211 16.5092L4.79608 9.86599H7.54549C9.97421 9.86599 11.9433 7.89703 11.9433 5.4682C11.9433 4.10651 11.3244 2.88935 10.3525 2.08267H14.168C14.4476 2.08267 14.6742 1.85608 14.6742 1.57655C14.6742 1.29703 14.4476 1.07043 14.168 1.07043H2.69704C2.41752 1.07043 2.19092 1.29703 2.19092 1.57655C2.19092 1.85608 2.41752 2.08267 2.69704 2.08267H7.54549C9.41519 2.08267 10.931 3.59845 10.931 5.4682C10.931 7.33798 9.41519 8.85375 7.54549 8.85375H3.65377C3.45355 8.85375 3.27213 8.97177 3.19103 9.15484C3.10991 9.3379 3.14436 9.55157 3.27887 9.69989L10.0714 17.1892C10.2591 17.3963 10.5792 17.4119 10.7863 17.2241Z" fill="black"/>
<path fill-rule="evenodd" clip-rule="evenodd" d="M2.19092 5.46828C2.19092 5.7478 2.41752 5.9744 2.69704 5.9744H14.168C14.4476 5.9744 14.6742 5.7478 14.6742 5.46828C14.6742 5.18876 14.4476 4.96216 14.168 4.96216H2.69704C2.41752 4.96216 2.19092 5.18876 2.19092 5.46828Z" fill="black"/>
</svg>
