<svg width="18" height="18" viewBox="0 0 18 18" fill="none" xmlns="http://www.w3.org/2000/svg">
<path d="M16 5V16C16 16.2761 15.7761 16.5 15.5 16.5H2.5C2.22386 16.5 2 16.2761 2 16V12.5C2 12.2239 2.22386 12 2.5 12H5.5C5.77614 12 6 11.7761 6 11.5V8C6 7.72386 6.22386 7.5 6.5 7.5H9.5C9.77614 7.5 10 7.27614 10 7V2.5C10 2.22386 10.2239 2 10.5 2H13.5" stroke="black" stroke-width="1.2"/>
<g clip-path="url(#clip0_429_11987)">
<path d="M14.14 2.00001C14.14 2.0717 14.1126 2.14338 14.058 2.19803L12.338 3.91794C12.2286 4.02735 12.0513 4.02735 11.9419 3.91794C11.8325 3.80858 11.8325 3.63123 11.9419 3.52181L13.4638 2.00001L11.9419 0.478204C11.8326 0.368795 11.8326 0.191461 11.9419 0.0821056C12.0513 -0.0273562 12.2287 -0.0273562 12.3381 0.0821056L14.058 1.80199C14.1127 1.85667 14.14 1.92835 14.14 2.00001Z" fill="black"/>
</g>
<defs>
<clipPath id="clip0_429_11987">
<rect width="4" height="4" fill="white" transform="translate(11 4) rotate(-90)"/>
</clipPath>
</defs>
</svg>
